<svg version="1.2" xmlns="http://www.w3.org/2000/svg" viewBox="0 0 1550 268" width="1550" height="268">
	<title>telia-company-logo-header-svg</title>
	<style>
		.s0 { fill: #990ae3 } 
	</style>
	<g id="Symbol">
		<path id="Layer" class="s0" d="m37.3 206.6c-8.8-11.4-13.9-18.9-21.7-34.3 22.4 24.6 72.8 15.9 139.9-16.3 55.6-26.8 97.7-67.7 99.7-100.2 0.3 2.8 0.4 5.7 0.4 8.8-0.3 22.2-0.9 24.7-3.7 44.9-9.9 24.3-41.1 58.4-75.8 78.6-58.4 33.8-112.9 41.5-138.8 18.5zm-30.9-55.9c-3.5-10.3-5.4-20.1-5.4-28.9 0-68.3 99.6-121.8 180.8-121.8 27.4 0 52.9 8.3 65.5 30.1 7.7 28.8-36.3 72.3-99.6 102.8-66.2 31.9-122.8 42.4-141.3 17.8zm235.2-1.1c-24.7 71.7-77 118.1-115.1 118.1-21.8 0-46.6-15.3-68.5-37.1l0.2 0.2c14.1 11.2 39.6 17 84.1-1.1 55.4-22.4 85.3-54.2 99.3-80.1z"/>
	</g>
	<g id="Company">
		<path id="Layer" fill-rule="evenodd" class="s0" d="m406.9 94.5h-41.3v116.3h-26.2v-116.3h-41.6v-22.6h109.1zm78.6 73.6h-73.2c2.5 14.7 13.1 24.4 26.5 24.4 10.2 0 18.3-4.5 23.3-12.1l19.4 11.7c-9.9 13.3-26.2 21.3-42.7 21.3-27.1 0-50.7-21.7-50.7-52.6 0-31 23.4-52.4 49.6-52.4 34.3 0 51.2 27.4 47.8 59.7zm-72.4-18.4h48.8c-3-13-11.3-21.1-24.2-21.1-12.1 0-21.3 8.3-24.6 21.1zm124.4 61.5c-3.8 0.8-7.8 1-11.3 1-17.5 0-25.2-8.4-25.2-25.2v-115.2h24.4v111.8c0 8.5 5.1 9.7 12.1 8.9zm27.1-113.7c-8 0-14.4-6.3-14.4-14.1 0-7.8 6.4-14.1 14.4-14.1 7.9 0 14.3 6.3 14.3 14.1 0 7.8-6.4 14.1-14.3 14.1zm-12.2 14.1h24.4v99.2h-24.4zm126.9 29v70.3h-22.8v-11.5c-7.7 10.1-20 13.9-30.3 13.9-21.5 0-34.2-13.5-34.2-30.4 0-19.3 21.7-34.9 48-34.9 5.2 0 10.8 0.4 15.7 1.9v-6.5c0-9.9-5.7-15.1-17.4-15.1-10.6 0-19.9 5.4-25.6 12.3l-17.3-12.7c9.7-11.3 26.4-19.2 43.3-19.2 26.3 0 40.6 11.5 40.6 31.9zm-23.6 32v-4.4c-3.9-1.4-8.1-1.8-13.3-1.8-17.8 0-27 7.2-27 15.9 0 7.2 6.2 11.7 15.5 11.7 12.3 0 24.8-7.3 24.8-21.4zm66.3-31.2c0-42.2 32.5-72.6 71.2-72.6 20.5 0 38.5 8.3 50.4 20.6l-17.6 16.7c-8-8.7-19.5-14.7-32.8-14.7-25.4 0-44.4 20.7-44.4 50 0 29.4 19 50.1 44.4 50.1 14.3 0 26.6-7 34.4-16.7l18 16.5c-11.9 13.7-30.7 22.8-52.4 22.8-38.7 0-71.2-30.4-71.2-72.7zm127.8 19.5c0-30.8 23.2-52.4 51.4-52.4 28.4 0 51.6 21.6 51.6 52.4 0 31-23.2 52.6-51.6 52.6-28.2 0-51.4-21.6-51.4-52.6zm78.2 0c0-18.5-11.3-31.6-26.8-31.6-15.3 0-26.6 13.1-26.6 31.6 0 18.7 11.3 31.8 26.6 31.8 15.5 0 26.8-13.1 26.8-31.8zm183.7-20.4v70.4h-24.4v-62.1c0-10.1-3.3-17.7-14.6-17.7-10.2 0-20.9 8.4-20.9 26.2v53.6h-24.6v-62.1c0-10.1-3.2-17.7-14.5-17.7-10.1 0-21 8.4-21 26.2v53.6h-24.4v-99.2h23.6v13.9c6.5-11.1 17.9-16.7 29.2-16.7 13.7 0 24.2 7.1 28.9 17.9 7.6-12 18.9-17.9 31.2-17.9 18.6 0 31.5 13.3 31.5 31.6zm121.3 21.2c0 30.6-20.4 52.4-47.2 52.4-11.5 0-21.5-4.7-29-12.9v47.5h-24.4v-137h23.4v11.5c7.5-8.7 18.1-14.1 30-14.1 26.8 0 47.2 21.8 47.2 52.6zm-24.6 0c0-18.7-11.1-31.8-26.2-31.8-14.9 0-25.8 13.1-25.8 31.8 0 18.5 10.9 31.6 25.8 31.6 15.1 0 26.2-13.1 26.2-31.6zm120-21v70.2h-22.8v-11.5c-7.7 10.2-20 13.9-30.3 13.9-21.5 0-34.2-13.5-34.2-30.3 0-19.3 21.7-35 48.1-35 5.1 0 10.7 0.4 15.6 2v-6.6c0-9.9-5.7-15-17.4-15-10.6 0-19.9 5.3-25.6 12.3l-17.3-12.7c9.7-11.4 26.4-19.3 43.3-19.3 26.4 0 40.6 11.5 40.6 32zm-23.6 31.9v-4.4c-3.9-1.3-8.1-1.7-13.3-1.7-17.8 0-27 7.1-27 15.8 0 7.2 6.2 11.8 15.5 11.8 12.3 0 24.8-7.4 24.8-21.5zm133.8-31.5v69.8h-24.6v-61.5c0-10.5-3.6-18.3-16.5-18.3-11.7 0-24.2 8.6-24.2 26.6v53.2h-24.4v-99.2h23.6v14.7c6.9-11.8 19.6-17.5 32.5-17.5 19.9 0 33.6 13.5 33.6 32.2zm86.1-29.4h25.2l-37.7 96.7c-10.9 28-26.2 40.3-37.1 44l-11.7-17.4c8.1-4.6 16.1-10 23.8-26l-40.1-97.3h26.4l26.2 67.9z"/>
	</g>
</svg>